<?xml version="1.0" encoding="UTF-8"?>
<!DOCTYPE svg PUBLIC "-//W3C//DTD SVG 1.1//EN" "http://www.w3.org/Graphics/SVG/1.1/DTD/svg11.dtd">
<!-- Creator: CorelDRAW 2020 (64-Bit) -->
<svg xmlns="http://www.w3.org/2000/svg" xml:space="preserve" width="10.7438mm" height="10.7447mm" version="1.1" style="shape-rendering:geometricPrecision; text-rendering:geometricPrecision; image-rendering:optimizeQuality; fill-rule:evenodd; clip-rule:evenodd"
viewBox="0 0 232.17 232.19"
 xmlns:xlink="http://www.w3.org/1999/xlink"
 xmlns:xodm="http://www.corel.com/coreldraw/odm/2003">
 <defs>
  <style type="text/css">
   <![CDATA[
    .fil0 {fill:#222124;fill-rule:nonzero}
   ]]>
  </style>
 </defs>
 <g id="Capa_x0020_1">
  <metadata id="CorelCorpID_0Corel-Layer"/>
  <path class="fil0" d="M52.88 27.28c-14.13,0 -25.62,11.48 -25.62,25.61l0 126.43c0,14.12 11.5,25.6 25.62,25.6l126.43 0c14.11,0 25.6,-11.48 25.6,-25.6l0 -126.43c0,-14.13 -11.49,-25.61 -25.6,-25.61l-126.43 0zm126.43 204.91l-126.43 0c-29.16,0 -52.88,-23.73 -52.88,-52.87l0 -126.43c0,-29.16 23.73,-52.88 52.88,-52.88l126.43 0c29.14,0 52.86,23.73 52.86,52.88l0 126.43c0,29.15 -23.72,52.87 -52.86,52.87z"/>
  <path class="fil0" d="M182.79 128.3l-53.08 0 0 53.09c0,7.53 -6.1,13.63 -13.63,13.63 -7.52,0 -13.63,-6.1 -13.63,-13.63l0 -53.09 -53.09 0c-7.53,0 -13.63,-6.1 -13.63,-13.63 0,-7.52 6.1,-13.63 13.63,-13.63l53.09 0 0 -53.07c0,-7.53 6.1,-13.63 13.63,-13.63 7.53,0 13.63,6.1 13.63,13.63l0 53.07 53.08 0c7.54,0 13.64,6.1 13.64,13.63 0,7.53 -6.1,13.63 -13.64,13.63z"/>
 </g>
</svg>
