<?xml version="1.0" encoding="UTF-8"?>
<!DOCTYPE svg PUBLIC "-//W3C//DTD SVG 1.1//EN" "http://www.w3.org/Graphics/SVG/1.1/DTD/svg11.dtd">
<!-- Creator: CorelDRAW 2020 (64-Bit) -->
<svg xmlns="http://www.w3.org/2000/svg" xml:space="preserve" width="9.7086mm" height="9.7088mm" version="1.1" style="shape-rendering:geometricPrecision; text-rendering:geometricPrecision; image-rendering:optimizeQuality; fill-rule:evenodd; clip-rule:evenodd"
viewBox="0 0 22.84 22.84"
 xmlns:xlink="http://www.w3.org/1999/xlink"
 xmlns:xodm="http://www.corel.com/coreldraw/odm/2003">
 <defs>
  <style type="text/css">
   <![CDATA[
    .fil0 {fill:#222124;fill-rule:nonzero}
   ]]>
  </style>
 </defs>
 <g id="Capa_x0020_1">
  <metadata id="CorelCorpID_0Corel-Layer"/>
  <path class="fil0" d="M17.47 4.08c-0.74,0 -1.34,0.6 -1.34,1.34 0,0.74 0.6,1.34 1.34,1.34 0.74,0 1.34,-0.6 1.34,-1.34 0,-0.74 -0.6,-1.34 -1.34,-1.34z"/>
  <path class="fil0" d="M11.51 15.02c-1.99,0 -3.6,-1.62 -3.6,-3.6 0,-1.99 1.62,-3.6 3.6,-3.6 1.99,0 3.6,1.62 3.6,3.6 0,1.99 -1.62,3.6 -3.6,3.6zm0 -9.23c-3.1,0 -5.63,2.52 -5.63,5.63 0,3.1 2.52,5.62 5.63,5.62 3.1,0 5.62,-2.52 5.62,-5.62 0,-3.1 -2.52,-5.63 -5.62,-5.63z"/>
  <path class="fil0" d="M6.86 2.15c-2.6,0 -4.71,2.11 -4.71,4.71l0 9.12c0,2.6 2.11,4.71 4.71,4.71l9.12 0c2.6,0 4.71,-2.11 4.71,-4.71l0 -9.12c0,-2.6 -2.11,-4.71 -4.71,-4.71l-9.12 0zm9.12 20.69l-9.12 0c-3.78,0 -6.86,-3.08 -6.86,-6.86l0 -9.12c0,-3.78 3.08,-6.86 6.86,-6.86l9.12 0c3.78,0 6.86,3.08 6.86,6.86l0 9.12c0,3.78 -3.08,6.86 -6.86,6.86z"/>
 </g>
</svg>
