<?xml version="1.0" encoding="UTF-8"?>
<!DOCTYPE svg PUBLIC "-//W3C//DTD SVG 1.1//EN" "http://www.w3.org/Graphics/SVG/1.1/DTD/svg11.dtd">
<!-- Creator: CorelDRAW 2020 (64-Bit) -->
<svg xmlns="http://www.w3.org/2000/svg" xml:space="preserve" width="9.6516mm" height="9.6294mm" version="1.1" style="shape-rendering:geometricPrecision; text-rendering:geometricPrecision; image-rendering:optimizeQuality; fill-rule:evenodd; clip-rule:evenodd"
viewBox="0 0 109.12 108.87"
 xmlns:xlink="http://www.w3.org/1999/xlink"
 xmlns:xodm="http://www.corel.com/coreldraw/odm/2003">
 <defs>
  <style type="text/css">
   <![CDATA[
    .fil0 {fill:#222124;fill-rule:nonzero}
   ]]>
  </style>
 </defs>
 <g id="Capa_x0020_1">
  <metadata id="CorelCorpID_0Corel-Layer"/>
  <path class="fil0" d="M13.13 0c7.24,0 13.11,5.87 13.11,13.1 0,7.23 -5.87,13.12 -13.11,13.12 -7.26,0 -13.13,-5.88 -13.13,-13.12 0,-7.22 5.87,-13.1 13.13,-13.1zm-11.33 36.14l22.64 0 0 72.73 -22.64 0 0 -72.73z"/>
  <path class="fil0" d="M38.62 36.14l21.69 0 0 9.95 0.3 0c3.03,-5.72 10.4,-11.75 21.41,-11.75 22.89,0 27.11,15.05 27.11,34.64l0 39.89 -22.59 0 0 -35.36c0,-8.44 -0.17,-19.29 -11.75,-19.29 -11.77,0 -13.57,9.19 -13.57,18.67l0 35.98 -22.6 0 0 -72.73z"/>
 </g>
</svg>
