<?xml version="1.0" encoding="UTF-8"?>
<!DOCTYPE svg PUBLIC "-//W3C//DTD SVG 1.1//EN" "http://www.w3.org/Graphics/SVG/1.1/DTD/svg11.dtd">
<!-- Creator: CorelDRAW 2020 (64-Bit) -->
<svg xmlns="http://www.w3.org/2000/svg" xml:space="preserve" width="9.4455mm" height="11.038mm" version="1.1" style="shape-rendering:geometricPrecision; text-rendering:geometricPrecision; image-rendering:optimizeQuality; fill-rule:evenodd; clip-rule:evenodd"
viewBox="0 0 30.99 36.21"
 xmlns:xlink="http://www.w3.org/1999/xlink"
 xmlns:xodm="http://www.corel.com/coreldraw/odm/2003">
 <defs>
  <style type="text/css">
   <![CDATA[
    .fil0 {fill:#222124;fill-rule:nonzero}
   ]]>
  </style>
 </defs>
 <g id="Capa_x0020_1">
  <metadata id="CorelCorpID_0Corel-Layer"/>
  <path class="fil0" d="M30.98 14.65c-0.3,0.03 -0.59,0.04 -0.89,0.04 -3.26,0 -6.3,-1.64 -8.09,-4.37l0 14.89c0,6.08 -4.93,11 -11,11 -6.08,0 -11,-4.93 -11,-11 0,-6.08 4.93,-11 11,-11 0.23,0 0.46,0.02 0.68,0.03l0 5.42c-0.23,-0.03 -0.45,-0.07 -0.68,-0.07 -3.1,0 -5.62,2.51 -5.62,5.62 0,3.1 2.51,5.62 5.62,5.62 3.1,0 5.84,-2.44 5.84,-5.55l0.05 -25.28 5.19 0c0.49,4.65 4.24,8.28 8.9,8.63l0 6.03 -0 0z"/>
 </g>
</svg>
