<?xml version="1.0" encoding="UTF-8"?>
<!DOCTYPE svg PUBLIC "-//W3C//DTD SVG 1.1//EN" "http://www.w3.org/Graphics/SVG/1.1/DTD/svg11.dtd">
<!-- Creator: CorelDRAW 2020 (64-Bit) -->
<svg xmlns="http://www.w3.org/2000/svg" xml:space="preserve" width="9.2894mm" height="11.3272mm" version="1.1" style="shape-rendering:geometricPrecision; text-rendering:geometricPrecision; image-rendering:optimizeQuality; fill-rule:evenodd; clip-rule:evenodd"
viewBox="0 0 36.1 44.02"
 xmlns:xlink="http://www.w3.org/1999/xlink"
 xmlns:xodm="http://www.corel.com/coreldraw/odm/2003">
 <defs>
  <style type="text/css">
   <![CDATA[
    .fil0 {fill:#222124;fill-rule:nonzero}
   ]]>
  </style>
 </defs>
 <g id="Capa_x0020_1">
  <metadata id="CorelCorpID_0Corel-Layer"/>
  <path class="fil0" d="M18.98 38.69c-0.32,0.37 -0.72,0.43 -0.93,0.43 -0.21,0 -0.61,-0.06 -0.93,-0.43 -7.65,-9.02 -12.22,-16.73 -12.22,-20.64 0,-7.25 5.9,-13.15 13.15,-13.15 7.25,0 13.15,5.9 13.15,13.15 0,3.9 -4.57,11.62 -12.22,20.64zm-0.93 -38.69c-9.96,0 -18.05,8.1 -18.05,18.05 0,6.64 7.28,16.61 13.38,23.81 1.17,1.37 2.87,2.16 4.67,2.16 1.8,0 3.5,-0.79 4.67,-2.16 6.11,-7.2 13.39,-17.17 13.39,-23.81 0,-9.96 -8.1,-18.05 -18.05,-18.05z"/>
  <path class="fil0" d="M21.78 17.3c0,2.06 -1.67,3.73 -3.73,3.73 -2.06,0 -3.73,-1.67 -3.73,-3.73 0,-2.06 1.67,-3.73 3.73,-3.73 2.06,0 3.73,1.67 3.73,3.73z"/>
 </g>
</svg>
