<?xml version="1.0" encoding="UTF-8"?>
<!DOCTYPE svg PUBLIC "-//W3C//DTD SVG 1.1//EN" "http://www.w3.org/Graphics/SVG/1.1/DTD/svg11.dtd">
<!-- Creator: CorelDRAW 2020 (64-Bit) -->
<svg xmlns="http://www.w3.org/2000/svg" xml:space="preserve" width="9.652mm" height="9.6756mm" version="1.1" style="shape-rendering:geometricPrecision; text-rendering:geometricPrecision; image-rendering:optimizeQuality; fill-rule:evenodd; clip-rule:evenodd"
viewBox="0 0 115.54 115.82"
 xmlns:xlink="http://www.w3.org/1999/xlink"
 xmlns:xodm="http://www.corel.com/coreldraw/odm/2003">
 <defs>
  <style type="text/css">
   <![CDATA[
    .fil1 {fill:#222124}
    .fil0 {fill:#222124;fill-rule:nonzero}
   ]]>
  </style>
 </defs>
 <g id="Capa_x0020_1">
  <metadata id="CorelCorpID_0Corel-Layer"/>
  <path class="fil0" d="M32.69 95.87l1.96 1.17c7.2,4.29 15.39,6.56 23.69,6.56 25.58,0 46.39,-20.81 46.39,-46.39 0,-25.58 -20.81,-46.39 -46.39,-46.39 -25.58,0 -46.39,20.81 -46.39,46.39 0,8.45 2.35,16.76 6.79,24.05l1.2 1.98 -4.64 17.3 17.39 -4.66zm-32.69 19.95l8.31 -30.98c-4.7,-8.48 -7.18,-17.99 -7.18,-27.63 0,-31.54 25.66,-57.2 57.21,-57.2 31.54,0 57.2,25.66 57.2,57.2 0,31.54 -25.66,57.21 -57.2,57.21 -9.47,0 -18.82,-2.39 -27.19,-6.93l-31.14 8.34z"/>
  <path class="fil1" d="M79.61 65.16c-2.36,-1.41 -5.42,-2.98 -8.19,-1.84 -2.13,0.87 -3.49,4.2 -4.86,5.9 -0.71,0.88 -1.55,1.01 -2.64,0.57 -7.99,-3.18 -14.11,-8.52 -18.52,-15.87 -0.75,-1.14 -0.61,-2.04 0.29,-3.1 1.33,-1.57 3,-3.35 3.36,-5.46 0.36,-2.11 -0.63,-4.58 -1.5,-6.47 -1.11,-2.4 -2.37,-5.83 -4.77,-7.19 -2.21,-1.25 -5.13,-0.55 -7.1,1.06 -3.4,2.77 -5.05,7.12 -5,11.42 0.01,1.22 0.16,2.44 0.45,3.63 0.68,2.84 2,5.49 3.47,8.01 1.12,1.9 2.32,3.75 3.63,5.52 4.27,5.81 9.59,10.85 15.74,14.62 3.08,1.88 6.39,3.53 9.82,4.67 3.85,1.27 7.28,2.59 11.43,1.81 4.35,-0.83 8.64,-3.52 10.36,-7.71 0.51,-1.24 0.76,-2.62 0.48,-3.93 -0.59,-2.71 -4.26,-4.32 -6.45,-5.63z"/>
 </g>
</svg>
